<svg width="37" height="36" viewBox="0 0 37 36" fill="none" xmlns="http://www.w3.org/2000/svg">
<path fill-rule="evenodd" clip-rule="evenodd" d="M24.7195 11.1844C23.1707 9.70724 21.1038 8.90254 18.9653 8.93561C15.0521 8.93561 11.7285 11.5757 10.5435 15.1307C9.91518 16.9936 9.91518 19.011 10.5435 20.8739H10.549C11.7395 24.4234 15.0575 27.0635 18.9708 27.0635C20.9909 27.0635 22.7251 26.5468 24.0691 25.6342V25.6305C25.651 24.5833 26.7313 22.9353 27.0675 21.0724H18.9653V15.2961H33.1138C33.2902 16.2992 33.3729 17.3244 33.3729 18.3441C33.3729 22.9064 31.7424 26.7636 28.9054 29.3761L28.9084 29.3784C26.4226 31.6713 23.0109 32.9996 18.9653 32.9996C13.2938 32.9996 8.10733 29.8028 5.56094 24.7376C3.43346 20.4991 3.43346 15.5055 5.56096 11.2671C8.10735 6.19635 13.2938 2.99955 18.9653 2.99955C22.6912 2.95545 26.2903 4.35542 29.0021 6.90181L24.7195 11.1844Z" fill="white"/>
</svg>
